<svg width="1920" height="1080" viewBox="0 0 1920 1080" fill="none" xmlns="http://www.w3.org/2000/svg">
    <g opacity="0.03">
        <path d="M-12.7485 701.958C76.8605 701.958 149.503 629.316 149.503 539.707C149.503 450.098 76.8605 377.455 -12.7485 377.455C-102.358 377.455 -175 450.098 -175 539.707C-175 629.316 -102.358 701.958 -12.7485 701.958Z" fill="white"/>
        <path d="M1931.25 701.958C2020.86 701.958 2093.5 629.316 2093.5 539.707C2093.5 450.098 2020.86 377.455 1931.25 377.455C1841.64 377.455 1769 450.098 1769 539.707C1769 629.316 1841.64 701.958 1931.25 701.958Z" fill="white"/>
        <path d="M230.534 171.817C293.896 108.454 293.896 5.72334 230.534 -57.6392C167.171 -121.002 64.4405 -121.002 1.07792 -57.6392C-62.2846 5.72333 -62.2846 108.454 1.07792 171.817C64.4405 235.179 167.171 235.179 230.534 171.817Z" fill="white"/>
        <path d="M1802.31 1185.26C1891.92 1185.26 1964.56 1112.62 1964.56 1023.01C1964.56 933.4 1891.92 860.758 1802.31 860.758C1712.7 860.758 1640.06 933.4 1640.06 1023.01C1640.06 1112.62 1712.7 1185.26 1802.31 1185.26Z" fill="white"/>
        <path d="M1802.91 219.433C1892.52 219.433 1965.17 146.79 1965.17 57.1813C1965.17 -32.4277 1892.52 -105.07 1802.91 -105.07C1713.31 -105.07 1640.66 -32.4277 1640.66 57.1813C1640.66 146.79 1713.31 219.433 1802.91 219.433Z" fill="white"/>
        <path d="M230.162 1137.22C293.525 1073.85 293.525 971.123 230.162 907.761C166.799 844.398 64.0685 844.398 0.705973 907.761C-62.6566 971.123 -62.6565 1073.85 0.705994 1137.22C64.0685 1200.58 166.8 1200.58 230.162 1137.22Z" fill="white"/>
        <path d="M959.207 1236.35C1014.16 1236.35 1058.72 1191.8 1058.72 1136.84C1058.72 1081.89 1014.16 1037.34 959.207 1037.34C904.25 1037.34 859.698 1081.89 859.698 1136.84C859.698 1191.8 904.25 1236.35 959.207 1236.35Z" fill="white"/>
        <path d="M959.207 40.7835C1014.16 40.7835 1058.72 -3.76791 1058.72 -58.7249C1058.72 -113.682 1014.16 -158.233 959.207 -158.233C904.25 -158.233 859.698 -113.682 859.698 -58.7249C859.698 -3.76791 904.25 40.7835 959.207 40.7835Z" fill="white"/>
        <path d="M360.775 639.215C415.732 639.215 460.284 594.664 460.284 539.707C460.284 484.75 415.732 440.198 360.775 440.198C305.818 440.198 261.267 484.75 261.267 539.707C261.267 594.664 305.818 639.215 360.775 639.215Z" fill="white"/>
        <path d="M1556.34 639.215C1611.3 639.215 1655.85 594.664 1655.85 539.707C1655.85 484.75 1611.3 440.198 1556.34 440.198C1501.39 440.198 1456.84 484.75 1456.84 539.707C1456.84 594.664 1501.39 639.215 1556.34 639.215Z" fill="white"/>
        <path d="M573.428 72.112C600.7 119.838 662.062 136.149 709.788 108.877C757.514 81.6054 773.826 20.2432 746.554 -27.4828C719.282 -75.2089 657.92 -91.5204 610.194 -64.2483C562.554 -36.89 546.156 23.0913 573.428 72.112Z" fill="white"/>
        <path d="M1257.99 1157.38C1312.95 1157.38 1357.5 1112.83 1357.5 1057.88C1357.5 1002.92 1312.95 958.368 1257.99 958.368C1203.03 958.368 1158.48 1002.92 1158.48 1057.88C1158.48 1112.83 1203.03 1157.38 1257.99 1157.38Z" fill="white"/>
        <path d="M1328.37 92.1664C1367.23 53.3063 1367.23 -9.69838 1328.37 -48.5585C1289.51 -87.4186 1226.5 -87.4186 1187.64 -48.5585C1148.78 -9.69841 1148.78 53.3063 1187.64 92.1664C1226.5 131.026 1289.51 131.027 1328.37 92.1664Z" fill="white"/>
        <path d="M709.788 970.536C662.062 943.264 600.7 959.662 573.428 1007.3C546.156 1055.03 562.554 1116.39 610.194 1143.66C657.833 1170.93 719.282 1154.54 746.554 1106.9C773.826 1059.08 757.428 997.808 709.788 970.536Z" fill="white"/>
        <path d="M490.231 155.309C442.505 128.037 381.143 144.435 353.871 192.074C326.599 239.714 342.996 301.163 390.636 328.435C438.276 355.707 499.724 339.309 526.997 291.669C554.355 243.943 537.957 182.581 490.231 155.309Z" fill="white"/>
        <path d="M1548.93 906.976C1587.79 868.116 1587.79 805.111 1548.93 766.251C1510.07 727.391 1447.07 727.391 1408.21 766.251C1369.35 805.111 1369.35 868.116 1408.21 906.976C1447.07 945.836 1510.07 945.836 1548.93 906.976Z" fill="white"/>
        <path d="M1548.92 312.345C1587.78 273.485 1587.78 210.48 1548.92 171.62C1510.06 132.76 1447.05 132.76 1408.19 171.62C1369.33 210.48 1369.33 273.485 1408.19 312.345C1447.05 351.205 1510.06 351.205 1548.92 312.345Z" fill="white"/>
        <path d="M510.628 907.179C549.488 868.319 549.488 805.314 510.628 766.454C471.768 727.594 408.763 727.594 369.903 766.454C331.043 805.314 331.043 868.319 369.903 907.179C408.763 946.039 471.768 946.039 510.628 907.179Z" fill="white"/>
        <path d="M959.207 939.122C990.808 939.122 1016.43 913.504 1016.43 881.902C1016.43 850.301 990.808 824.683 959.207 824.683C927.605 824.683 901.987 850.301 901.987 881.902C901.987 913.504 927.605 939.122 959.207 939.122Z" fill="white"/>
        <path d="M959.207 254.731C990.808 254.731 1016.43 229.113 1016.43 197.512C1016.43 165.91 990.808 140.292 959.207 140.292C927.605 140.292 901.987 165.91 901.987 197.512C901.987 229.113 927.605 254.731 959.207 254.731Z" fill="white"/>
        <path d="M674.317 539.707C674.317 508.378 648.426 482.487 617.098 482.487C585.77 482.487 559.878 508.378 559.878 539.707C559.878 571.035 585.77 596.926 617.098 596.926C648.426 597.013 674.317 571.121 674.317 539.707Z" fill="white"/>
        <path d="M1358.62 539.707C1358.62 508.378 1332.73 482.487 1301.4 482.487C1270.07 482.487 1244.18 508.378 1244.18 539.707C1244.18 571.035 1270.07 596.926 1301.4 596.926C1332.73 596.926 1358.62 571.121 1358.62 539.707Z" fill="white"/>
        <path d="M738.355 272.51C754.753 299.782 788.757 309.275 816.029 292.964C843.301 276.652 852.794 242.562 836.483 215.29C820.085 188.018 786.081 178.525 758.809 194.836C731.537 209.853 722.044 243.943 738.355 272.51Z" fill="white"/>
        <path d="M1180.06 806.904C1163.66 779.632 1129.66 770.138 1102.39 786.45C1075.11 802.761 1065.62 836.851 1081.93 864.123C1098.24 891.395 1132.33 900.889 1159.6 884.578C1185.5 869.647 1195.08 834.176 1180.06 806.904Z" fill="white"/>
        <path d="M1080.55 215.29C1064.15 242.562 1073.73 278.033 1101 292.964C1128.28 309.362 1163.75 299.782 1178.68 272.51C1195.08 245.238 1185.5 209.767 1158.22 194.836C1131.04 178.438 1095.57 186.637 1080.55 215.29Z" fill="white"/>
        <path d="M787.462 892.863C819.063 892.863 844.681 867.245 844.681 835.643C844.681 804.042 819.063 778.424 787.462 778.424C755.86 778.424 730.242 804.042 730.242 835.643C730.242 867.245 755.86 892.863 787.462 892.863Z" fill="white"/>
        <path d="M702.451 410.237C724.796 387.891 724.796 351.662 702.451 329.317C680.105 306.972 643.876 306.972 621.531 329.317C599.185 351.662 599.185 387.892 621.531 410.237C643.876 432.582 680.105 432.582 702.451 410.237Z" fill="white"/>
        <path d="M1227.78 759.178C1255.06 775.576 1290.53 765.996 1305.46 737.343C1321.86 710.071 1312.28 674.6 1283.62 659.669C1256.35 643.272 1220.88 652.851 1205.95 681.504C1189.64 708.776 1199.13 742.866 1227.78 759.178Z" fill="white"/>
        <path d="M1283.71 419.744C1310.98 403.346 1320.48 369.343 1305.54 342.071C1289.15 314.799 1255.14 305.305 1227.87 320.236C1200.6 336.634 1191.11 370.637 1206.04 397.909C1222.35 425.181 1256.44 434.761 1283.71 419.744Z" fill="white"/>
        <path d="M702.154 749.408C724.5 727.062 724.5 690.833 702.154 668.488C679.809 646.142 643.58 646.142 621.235 668.488C598.889 690.833 598.889 727.062 621.235 749.408C643.58 771.753 679.809 771.753 702.154 749.408Z" fill="white"/>
    </g>
</svg>
